# xmcd
#
# Track frame offsets:
#	150
#	22732
#	34770
#	56762
#	75425
#	102347
#
# Disc length: 1650 seconds
#
# Revision: 2
# Processed by: cddbd v1.4PL0 Copyright (c) Steve Scherf et al.
# Submitted via: audiograbber 1.80
#
DISCID=3b067006
DTITLE=Dave Specter - More than the Blues
DYEAR=1900
DGENRE=
TTITLE0=Survivors Blues
TTITLE1=Pouring Water on a Drowning Man
TTITLE2=Blues in the Forest 
TTITLE3=Sick and Tired
TTITLE4=Going Down Slow
TTITLE5=Big Easy R&B Medley
EXTD=presented by Forest Pharmaceuticals
EXTT0=
EXTT1=
EXTT2=
EXTT3=
EXTT4=
EXTT5=
PLAYORDER=
